<svg version="1.2" xmlns="http://www.w3.org/2000/svg" viewBox="0 0 88 88" width="88" height="88"><style>.a{fill:#FF4E50}</style><path fill-rule="evenodd" class="a" d="m85 72.8c1.7 1.7 2.6 3.9 2.6 6.1 0 2.2-0.9 4.5-2.6 6.2-1.7 1.7-3.9 2.5-6.1 2.5-2.3 0-4.5-0.8-6.2-2.5-1.7-1.7-2.6-4-2.5-6.2q0 0 0 0l-9-7.3-4.8 4.9-6.8-0.7-0.6-5.8v-1l2.9-2.9-51.9-48.6 1.8-15.7 15.7-1.8 48.5 51.9 3-2.9 6.7 0.7 0.7 6.8-4.8 4.8 7.2 8.9q0 0 0.1 0c2.2 0 4.4 0.9 6.1 2.6zm-45.8-12.6c0.7 0.8 0.7 2.1-0.1 2.8l-3.3 3.1 2.2 2.2 0.7 0.7-0.7 6.8-6.7 0.7-4.9-4.9-8.9 7.3q0 0 0 0c0 2.2-0.8 4.5-2.5 6.2l-1.5-1.4 1.5 1.4c-1.7 1.7-4 2.5-6.2 2.5-2.2 0-4.5-0.8-6.2-2.5-1.7-1.7-2.5-4-2.5-6.2 0-2.2 0.8-4.4 2.5-6.1 1.7-1.7 4-2.6 6.2-2.6q0 0 0.1 0l7.2-8.9-4.8-4.8 0.6-6.8 6.8-0.7 2.9 2.9 3.5-3.7c0.7-0.8 2-0.8 2.8-0.1 0.8 0.8 0.9 2 0.1 2.8l-3.5 3.9 2.8 2.8 4.5-4.5c0.7-0.7 2-0.7 2.8 0 0.8 0.8 0.8 2.1 0 2.9l-4.5 4.4 2.9 2.9 3.3-3.2c0.8-0.8 2.1-0.7 2.9 0.1zm-20.5 12.6l-3.8-3.7-1.8 2.2q0 0.1 0.1 0.1 0.4 0.2 0.7 0.5 0.1 0.1 0.2 0.1 0.5 0.4 0.9 0.8 0.3 0.4 0.7 0.8 0.1 0.1 0.1 0.2 0.3 0.4 0.5 0.7 0 0.1 0.1 0.1zm15.9-2.2l-1.7-1.7-3.5-3.5-12.2-12.2-1.6 0.2-0.2 1.6 6.9 6.9 7.3 7.3 3.2 3.1 1.6-0.1zm-10.9-1.7l-3-2.9-1.7-1.8-1.5 1.8 4.3 4.3zm23.9-41.5c-0.8-0.7-0.8-2-0.1-2.8l22.9-24.4 15.7 1.7 1.7 15.8-24 22.4c-0.3 0.4-0.8 0.5-1.3 0.5-0.6 0-1.1-0.2-1.5-0.6-0.7-0.8-0.7-2.1 0.1-2.8l22.5-21.1-0.9-8-25.5 25.5c-0.3 0.4-0.9 0.6-1.4 0.6-0.5 0-1-0.2-1.4-0.6-0.8-0.8-0.8-2 0-2.8l25.5-25.5-8-0.9-21.5 22.9c-0.7 0.8-2 0.9-2.8 0.1zm-35.3 55c0.9-0.9 1.4-2.1 1.4-3.3q0-0.4-0.1-0.8 0-0.2-0.1-0.4 0-0.2-0.1-0.4-0.1-0.2-0.2-0.4-0.1-0.2-0.2-0.4-0.1-0.2-0.2-0.3-0.2-0.3-0.5-0.6 0-0.1 0-0.1 0 0 0 0-0.3-0.3-0.7-0.5-0.1-0.1-0.3-0.2-0.2-0.1-0.4-0.2-0.2-0.1-0.4-0.2-0.2 0-0.4-0.1-0.2 0-0.4-0.1-0.4 0-0.7-0.1c-1.3 0.1-2.4 0.5-3.4 1.4-0.9 1-1.4 2.1-1.4 3.4 0 1.2 0.5 2.4 1.4 3.3 1 0.9 2.1 1.4 3.4 1.4 1.2 0 2.4-0.5 3.3-1.4zm-4.2-77.1l52.4 52.4 2.9-2.8-47.3-50.5zm46.8 58.1l2.8-2.8-52.4-52.5-0.9 8zm8.8 0.4l8.7-8.7-0.2-1.6-1.6-0.1-17.3 17.3 0.1 1.6 1.7 0.2 3.2-3.2zm2.3 6.6l4.3-4.3-1.5-1.8-4.6 4.6zm7.8 1.7q0.4-0.3 0.7-0.5 0.1 0 0.2-0.1l-1.9-2.3-3.7 3.8 2.3 1.8q0 0 0-0.1 0.3-0.4 0.5-0.7 0.1-0.1 0.2-0.2 0.3-0.5 0.7-0.8 0-0.1 0-0.1 0.4-0.3 0.8-0.7 0.1 0 0.2-0.1zm9.9 7c0-1.2-0.5-2.4-1.4-3.3-1-0.9-2.1-1.4-3.4-1.4q-0.3 0-0.7 0.1-0.2 0-0.4 0.1-0.2 0-0.4 0.1-0.2 0-0.4 0.1-0.2 0.1-0.4 0.3-0.2 0-0.3 0.1-0.4 0.3-0.7 0.6 0 0 0 0-0.3 0.3-0.5 0.6-0.1 0.2-0.2 0.3-0.1 0.2-0.2 0.5-0.1 0.2-0.2 0.4-0.1 0.1-0.1 0.3-0.1 0.2-0.1 0.5-0.1 0.3-0.1 0.7c0 1.2 0.5 2.4 1.4 3.3 0.9 1 2.1 1.4 3.3 1.4 1.3 0 2.4-0.4 3.4-1.4 0.9-0.9 1.4-2.1 1.4-3.3z" fill="#FF4E50"/></svg>