<svg version="1.2" xmlns="http://www.w3.org/2000/svg" viewBox="0 0 109 96" width="109" height="96"><style>.a{fill:#FF4E50}</style><path fill-rule="evenodd" class="a" d="m108.6 37c0 6.1-2.3 12.1-6.9 16.7-4.6 4.6-10.6 6.9-16.7 6.9q-0.8 0-1.6 0l-10 10q0 0.8 0 1.6c0 6.1-2.3 12.1-6.9 16.7-4.6 4.6-10.6 6.9-16.7 6.9-6 0-12.1-2.3-16.7-6.9-4.6-4.6-6.9-10.6-6.9-16.7 0-5.9 2.2-11.8 6.7-16.4q0-0.1 0.1-0.1l16.3-16.3-5.5-5.5c-1.2-1.1-1.7-2.7-1.7-4.2 0-1.5 0.5-3.1 1.7-4.2l13.2-13.2c0.3-0.4 0.5-0.9 0.5-1.4 0-0.5-0.2-1-0.5-1.4l-4.6-4.6c-0.4-0.4-0.9-0.6-1.4-0.6-0.5 0-1 0.2-1.4 0.6l-25.5 25.5c-0.8 0.8-2.1 0.8-2.9 0-0.7-0.8-0.7-2 0-2.8l25.5-25.5c1.2-1.2 2.8-1.8 4.3-1.8 1.5 0 3.1 0.6 4.2 1.8l4.6 4.5c1.1 1.2 1.7 2.8 1.7 4.3 0 1.5-0.5 3.1-1.7 4.2l-13.2 13.2c-0.3 0.4-0.5 0.9-0.5 1.4 0 0.5 0.2 1 0.5 1.4l5.5 5.5 16.2-16.3c4.6-4.6 10.7-6.9 16.7-6.9 6.1 0 12.1 2.3 16.7 6.9 4.6 4.6 6.9 10.7 6.9 16.7zm-4 0c0-5-1.9-10-5.7-13.8-3.8-3.9-8.8-5.8-13.9-5.8-5 0-10 1.9-13.8 5.8l-17.3 17.2q-0.1 0.3-0.3 0.5-0.2 0.2-0.5 0.3l-17.1 17.2q-0.1 0-0.1 0.1c-3.8 3.8-5.7 8.8-5.7 13.7 0 5.1 1.9 10.1 5.8 13.9 3.8 3.8 8.8 5.7 13.8 5.7 5.1 0 10.1-1.9 13.9-5.7 3.8-3.8 5.7-8.8 5.7-13.9q0-1-0.1-2.1c0-0.6 0.2-1.2 0.6-1.6l11.4-11.4c0.4-0.4 1-0.7 1.6-0.6q1.1 0.1 2.1 0.1c5.1 0 10.1-1.9 13.9-5.7 3.8-3.8 5.7-8.8 5.7-13.9zm-22.3-7.4c1.2 1.2 1.2 3.2 0 4.4-1.2 1.2-3.1 1.2-4.3 0-1.2-1.2-1.2-3.2 0-4.4 1.2-1.2 3.1-1.2 4.3 0zm10.7 10.8c1.3 1.2 1.3 3.1 0 4.3-1.2 1.2-3.1 1.2-4.3 0-1.2-1.2-1.2-3.1 0-4.3 1.2-1.2 3.1-1.2 4.3 0zm0-10.8c1.3 1.2 1.3 3.2 0 4.4-1.2 1.2-3.1 1.2-4.3 0-1.2-1.2-1.2-3.2 0-4.4 1.2-1.2 3.1-1.2 4.3 0zm-10.7 10.8c1.2 1.2 1.2 3.1 0 4.3-1.2 1.2-3.1 1.2-4.3 0-1.2-1.2-1.2-3.1 0-4.3 1.2-1.2 3.1-1.2 4.3 0zm-25.5 28.1l-3.8 3.7 3.8 3.8c0.7 0.7 0.7 2 0 2.8-0.4 0.4-0.9 0.6-1.5 0.6-0.5 0-1-0.2-1.4-0.6l-3.7-3.7-3.7 3.7c-0.4 0.4-0.9 0.6-1.4 0.6-0.5 0-1-0.2-1.4-0.6-0.8-0.8-0.8-2.1 0-2.8l3.7-3.8-3.7-3.7c-0.8-0.8-0.8-2 0-2.8 0.7-0.8 2-0.8 2.8 0l3.7 3.7 3.7-3.7c0.8-0.8 2.1-0.8 2.9 0 0.7 0.8 0.7 2 0 2.8zm13.7-17.2c0.8 0.8 0.8 2.1 0 2.9l-3.3 3.3c-0.4 0.4-0.9 0.6-1.4 0.6-0.5 0-1-0.2-1.4-0.6-0.8-0.8-0.8-2 0-2.8l3.3-3.4c0.8-0.7 2.1-0.7 2.8 0zm-60.7-9.4c0.8 0.8 0.8 2 0 2.8l-6.1 6.1c-0.4 0.3-0.9 0.5-1.4 0.5-0.5 0-1-0.2-1.4-0.5-0.8-0.8-0.8-2.1 0-2.9l6-6c0.8-0.8 2.1-0.8 2.9 0zm5.7-5.7c0.8 0.7 0.8 2 0 2.8l-0.9 0.9c-0.4 0.4-0.9 0.6-1.4 0.6-0.5 0-1-0.2-1.4-0.6-0.8-0.8-0.8-2.1 0-2.9l0.9-0.8c0.7-0.8 2-0.8 2.8 0z" fill="#FF4E50"/></svg>