<svg version="1.2" xmlns="http://www.w3.org/2000/svg" viewBox="0 0 121 80" width="121" height="80"><style>.a{fill:#FF4E50}</style><path fill-rule="evenodd" class="a" d="m120.5 74.9c0 1.6-0.1 2.5-0.1 2.6-0.2 1-1 1.7-2 1.7h-25c-0.5 0-1.1-0.2-1.4-0.6-0.4-0.3-0.6-0.9-0.6-1.4 0 0 0-1-0.1-3.4-0.1-2.5-0.4-6.4-0.8-12.2-0.8-9-4.3-11.8-5.6-12.5h-5.3c0.7 1.1 1.1 2.5 1.1 4v8.9c0 4.4-3.6 8-8 8h-19.5c-4.4 0-8-3.6-8-8v-8.9c0-1.5 0.4-2.9 1.2-4.1h-1.6q0 0-0.1 0c-1.4 0-4.2-0.5-6.9-3.2-2.6-2.8-5.2-7.5-7-15.8q-0.2-0.7-0.3-1.4h-25.1c-1.2 0-2.3-0.3-3.2-0.9-0.9-0.6-1.7-1.7-1.7-3.1v-10.9c0-1.4 0.8-2.5 1.7-3.1q1-0.7 2.3-0.9v-6c0-0.7 0.2-1.5 0.7-2.2 0.5-0.6 1.4-1.1 2.2-1 0.8 0 1.4 0.2 1.9 0.5l14 8.6q0 0 0.1 0c0.2 0.1 0.4 0.1 0.5 0.1l4.6 0.4q0 0 0 0h41.8c1 0 1.8 0.6 2 1.5q0 0 0.1 0.5 0.1 0.6 0.5 1.5c0.4 1.1 1 2.5 1.8 4h4.6c0.1 0 0.8 0 1.4-0.4 0.5-0.4 1.2-0.9 1.5-2.7 0.2-2 0.2-2 0.2-2 0.1-1.1 1.1-1.9 2.2-1.8 1.1 0.1 1.9 1.1 1.8 2.2 0 0 0 0-0.2 2v0.1 0.1c-0.4 2.8-2 4.7-3.5 5.6-1.5 0.9-2.9 0.9-3.4 0.9q0 0-0.1 0h-1.4c2 2 4.7 3.6 8.3 4 0.5 0 0.9 0.3 1.3 0.6q0.2 0 0.5 0c1.4 0 2.7 0.2 4 0.4 2.7 0.6 4.5 2.4 4.6 2.5 0.1 0.1 13.6 13.3 19.4 26 4 8.8 4.6 16.1 4.6 19.8zm-4 0c0-3.2-0.6-10-4.3-18.2-3.9-8.6-12.4-18.3-16.3-22.5-1.4-1.4-2.2-2.2-2.1-2.2q0 0-0.2-0.2-0.3-0.2-0.7-0.4c-0.5-0.4-1.2-0.8-1.7-0.8-1.2-0.3-2.3-0.4-3.3-0.4q0 0 0 0v16c2.4 1.9 6 6.2 6.6 15.1 0.5 7.3 0.7 11.6 0.8 13.9h21.2q0-0.1 0-0.3zm-32.6-44.3q0-0.7 0-1.3c-6.1-1.3-10-5.3-12.2-8.9-1.6-2.5-2.4-4.9-2.9-6.3h-37.7c0.5 2.2 1.6 6.6 3.6 15 1.7 7.9 4.1 11.9 6 13.9 1.9 1.9 3.4 2 4 2q0.1 0 0.2 0l6 0.1h33v-5.3zm-18.7 6.2c0 1.1-0.9 2-2 2h-18.1c-1.1 0-2-0.9-2-2 0-1.1 0.9-2 2-2h18.1c1.1 0 2 0.9 2 2zm0-14.9c0 1.1-0.9 2-2 2h-18.1c-1.1 0-2-0.9-2-2 0-1.1 0.9-2 2-2h18.1c1.1 0 2 0.9 2 2zm-35.7 2.7q-0.4-1.9-0.8-3.4h-12.4c-1.1 0-2-0.9-2-2 0-1.1 0.9-2 2-2h11.4c-0.3-1.5-0.6-2.6-0.8-3.3l-3.3-0.2h-0.1c-0.6-0.1-1.1-0.2-1.6-0.4-0.1 0-0.2 0-0.6-0.2l-12.8-7.9v6.4c0 0.6-0.2 1.1-0.6 1.5-0.3 0.3-0.8 0.5-1.4 0.5h-1.1c-0.4 0-0.8 0.2-0.9 0.3v10.5c0.1 0.1 0.5 0.2 0.9 0.2zm47.2 28.5c0-2.2-1.8-4-4-4h-2.4l-0.5 3.9v0.1c0 0.2-0.3 2.3-2.1 4.6-1.7 2.3-5.1 4.6-10.2 4.6q-0.1 0-0.1 0-0.4 0-0.7 0c-1.1-0.1-2-1-1.9-2.1 0-1.1 0.9-2 2-1.9q0.3 0 0.6 0c3.8-0.1 5.7-1.4 6.9-2.7 1.2-1.4 1.5-2.9 1.6-3.1l0.3-3.4h-13c-2.2 0-4 1.8-4 4v8.8c0 2.2 1.8 4 4 4h19.5c2.2 0 4-1.8 4-4zm-11.5-23.7c0 1.1-0.9 2-2 2h-18.2c-1.1 0-2-0.9-2-2 0-1.1 0.9-2 2-2h18.2c1.1 0 2 0.9 2 2zm46.2 38.6c1.1 0 2 0.9 2 2 0 1.1-0.9 2-2 2h-10.5c-1.1 0-2-0.9-2-2 0-1.1 0.9-2 2-2z" fill="#FF4E50"/></svg>