<svg version="1.2" xmlns="http://www.w3.org/2000/svg" viewBox="0 0 98 79" width="98" height="79"><style>.a{fill:#FF4E50}</style><path fill-rule="evenodd" class="a" d="m97.8 44q0 0.4-0.1 0.7 0 0.1 0 0.1l-3 31.6c-0.1 1-0.9 1.8-2 1.8h-86.8c-1 0-1.9-0.8-2-1.8l-3.3-32q0-0.2 0-0.4 0 0 0 0 0-0.7 0.2-1.5l7.4-29.8c0.6-2.4 2.3-4.2 4.4-5.2 1-0.5 2.2 0 2.7 1 0.4 1 0 2.2-1 2.6-1.1 0.5-2.1 1.6-2.3 2.5l-7.3 29.9q-0.1 0.3-0.1 0.5 0 0.1 0.1 0.3 0 0 0 0 0 0.1 0 0.1 0 0.1 0 0.2 0.1 0 0.1 0 0 0.1 0.1 0.2 0 0 0 0 0 0.1 0.1 0.1 0 0.1 0.1 0.1 0 0 0.1 0.1 0.1 0 0.2 0.1 0 0 0 0 0.2 0 0.5 0.1 0.1 0 0.2 0h86.2q0 0 0 0 0.6 0 0.9-0.2 0.1 0 0.1-0.1 0 0 0.1 0 0.2-0.2 0.3-0.5 0-0.2 0.1-0.5 0-0.2-0.1-0.5l-7.3-29.9c-0.3-1.1-1.5-2.3-2.7-2.6-1.1-0.3-1.7-1.5-1.3-2.5 0.3-1.1 1.4-1.7 2.4-1.3 2.6 0.7 4.7 2.8 5.4 5.5l7.4 29.8q0.2 0.8 0.2 1.5zm-54.6-35.2c0-1.1 0.9-2 2-2h8.3c1.1 0 2 0.9 2 2 0 1.1-0.9 2-2 2h-8.3c-1.1 0-2-0.9-2-2zm50.1 40.4q-0.5 0.1-0.9 0.1-0.1 0-0.1 0h-86.2q-0.5 0-1-0.1l2.6 25h83.2zm-75.4-32.3c-0.7-0.8-1.3-1.9-1.3-3.2v-2.2-4.9q0 0 0 0c0-1.3 0.6-2.4 1.3-3.2 0.8-0.8 1.8-1.4 2.9-1.9 2.2-1 5.1-1.6 8.2-1.6 4.6 0.1 8.6 1.1 11 3.5 0.8 0.8 1.4 1.9 1.4 3.2q0 0 0 0v4.6 2.5c0 1.3-0.6 2.4-1.4 3.2-0.8 0.8-1.8 1.4-2.9 1.9-2.2 1-5 1.6-8.1 1.6-4.7-0.1-8.7-1.2-11.1-3.5zm2.7-10.3c0 0 0 0.1 0.3 0.4 0.2 0.3 0.8 0.7 1.6 1q0.3 0.2 0.6 0.3 0 0 0.1 0 0.2 0.1 0.6 0.2 0.1 0.1 0.3 0.1 0.2 0.1 0.4 0.1 0.3 0.1 0.5 0.1 0.2 0.1 0.3 0.1 0.3 0 0.6 0.1 0.1 0 0.3 0 0.3 0.1 0.7 0.1 0.1 0 0.2 0 0.3 0.1 0.7 0.1 0.1 0 0.2 0 0.5 0 1 0c3.9 0.1 7.2-1.2 8.1-2.2 0.3-0.3 0.3-0.4 0.3-0.4 0 0 0-0.2-0.3-0.5-0.3-0.3-0.8-0.6-1.6-1-1.5-0.7-3.9-1.2-6.5-1.2-4 0-7.3 1.3-8.2 2.2-0.2 0.3-0.2 0.5-0.2 0.5zm0 7.1c0 0 0 0.1 0.2 0.4 0.3 0.3 0.9 0.7 1.6 1.1 1.6 0.7 3.9 1.2 6.6 1.2 3.9 0 7.3-1.3 8.1-2.3 0.3-0.3 0.3-0.4 0.3-0.4v-2.1q-0.1 0-0.2 0.1-0.1 0-0.1 0 0 0 0 0 0 0 0 0c-0.3 0.1-0.6 0.2-1 0.4-0.2 0-0.5 0.2-0.8 0.2-0.3 0.1-0.6 0.2-0.9 0.3q-0.5 0.1-1 0.2-0.6 0.1-1.2 0.2-0.5 0.1-1 0.1-1.1 0.1-2.2 0.1-0.8 0-1.6 0-0.2-0.1-0.4-0.1-0.6 0-1.2-0.1-0.1 0-0.2 0-0.7-0.1-1.4-0.3-0.2 0-0.4 0-0.5-0.2-1-0.3-0.1 0-0.3-0.1-0.6-0.2-1.2-0.4-0.1-0.1-0.3-0.1-0.2-0.1-0.4-0.2zm37.4 3.2c-0.8-0.8-1.4-2-1.4-3.2v-2.3-4.8q0 0 0-0.1c0-1.2 0.6-2.3 1.4-3.1 0.8-0.9 1.7-1.5 2.8-2 2.3-1 5.1-1.5 8.2-1.5 4.7 0.1 8.7 1.1 11 3.5 0.8 0.8 1.4 1.9 1.4 3.1q0 0.1 0 0.1v4.6 2.5c0 1.2-0.6 2.4-1.4 3.2-0.7 0.8-1.7 1.4-2.8 1.9-2.2 1-5.1 1.5-8.2 1.5-4.7 0-8.7-1.1-11-3.4zm2.6-10.4c0 0.1 0 0.2 0.3 0.5 0.3 0.3 0.8 0.7 1.6 1q0.3 0.1 0.6 0.3 0.1 0 0.1 0 0.3 0.1 0.6 0.2 0.2 0 0.3 0.1 0.2 0 0.4 0.1 0.3 0 0.5 0.1 0.2 0 0.3 0.1 0.3 0 0.6 0 0.1 0.1 0.3 0.1 0.3 0 0.6 0.1 0.1 0 0.3 0 0.3 0 0.5 0 0.2 0.1 0.4 0.1 0.4 0 0.7 0 0.2 0 0.3 0 0 0 0.1 0c3.8 0 7.2-1.2 8-2.2 0.3-0.3 0.3-0.4 0.3-0.5 0 0 0-0.1-0.3-0.4-0.2-0.3-0.8-0.7-1.6-1-1.5-0.7-3.9-1.2-6.5-1.2-3.9-0.1-7.3 1.2-8.1 2.2-0.3 0.3-0.3 0.4-0.3 0.4zm0 7.2c0 0 0 0.1 0.3 0.4 0.3 0.3 0.8 0.7 1.6 1 1.5 0.7 3.9 1.2 6.5 1.2 3.9 0.1 7.3-1.2 8.1-2.2 0.3-0.3 0.3-0.4 0.3-0.4v-2.2q-0.1 0.1-0.2 0.1 0 0 0 0.1 0 0 0 0 0 0-0.1 0c-0.3 0.1-0.6 0.2-1 0.3q-0.3 0.2-0.7 0.3-0.5 0.2-1.1 0.3-0.4 0.1-0.9 0.2-0.7 0.1-1.4 0.2-0.3 0-0.7 0.1-1.1 0.1-2.3 0.1 0 0 0 0-0.8 0-1.5-0.1-0.2 0-0.4 0-0.7 0-1.3-0.1-0.1 0-0.2-0.1-0.7 0-1.3-0.2-0.3 0-0.5-0.1-0.4-0.1-0.9-0.2-0.2-0.1-0.4-0.1-0.6-0.2-1.1-0.4-0.2-0.1-0.4-0.2-0.2-0.1-0.4-0.2zm-47.9 10.9c0.9-1 2-1.7 3.4-2.3 2.7-1.2 6.1-1.9 9.9-1.9 5.8 0.1 10.7 1.4 13.4 4.2 0.9 0.9 1.6 2.2 1.6 3.6q0 0.1 0 0.1v4.7 4.1c0 1.5-0.7 2.7-1.6 3.7-0.9 0.9-2 1.6-3.4 2.2-2.7 1.2-6.1 1.9-10 1.9-5.7 0-10.6-1.4-13.3-4.1-0.9-1-1.6-2.2-1.6-3.7v-4.8-4q0 0 0-0.1c0-1.4 0.7-2.7 1.6-3.6zm24.3 9.1q-0.5 0.2-1 0.5 0 0 0 0 0 0 0 0-0.2 0-0.3 0.1-0.4 0.1-0.7 0.3-0.3 0.1-0.5 0.1-0.3 0.1-0.7 0.3-0.2 0-0.5 0.1-0.3 0.1-0.6 0.2-0.3 0-0.6 0.1-0.3 0.1-0.7 0.1-0.3 0.1-0.6 0.1-0.3 0.1-0.6 0.1-0.4 0.1-0.7 0.1-0.3 0.1-0.7 0.1-0.4 0-0.7 0-0.3 0.1-0.6 0.1-0.6 0-1.2 0-0.1 0-0.3 0-0.9 0-1.9-0.1-0.2 0-0.5 0-0.7 0-1.3-0.1-0.3-0.1-0.6-0.1-0.8-0.1-1.6-0.3-0.1 0-0.2 0-0.8-0.2-1.5-0.4-0.2-0.1-0.5-0.2-0.5-0.1-1-0.3-0.2-0.1-0.5-0.2-0.6-0.3-1.1-0.5-0.1-0.1-0.2-0.1v3.4c0 0.2 0 0.5 0.5 0.9 0.4 0.4 1.1 1 2.1 1.4 2 0.9 5 1.5 8.3 1.5 5 0.1 9.3-1.5 10.5-2.9 0.4-0.4 0.5-0.7 0.5-0.9zm-21.9-5.4q0 0 0 0c0 0.2 0.1 0.4 0.5 0.9q0.3 0.3 0.8 0.7 0.1 0 0.2 0.1 0.2 0.1 0.4 0.2 0.2 0.1 0.4 0.2 0.1 0.1 0.3 0.2 0.2 0.1 0.5 0.1 0.1 0.1 0.3 0.2 0.3 0.1 0.6 0.2 0.2 0 0.3 0.1 0.3 0.1 0.7 0.2 0.1 0 0.2 0 0.5 0.1 0.9 0.2 0.1 0 0.2 0.1 0.4 0 0.9 0.1 0.1 0 0.2 0 0.4 0.1 0.9 0.1 0.1 0.1 0.2 0.1 0.5 0 1.1 0 0 0 0.1 0.1 0.6 0 1.2 0c5 0 9.3-1.5 10.5-2.9q0.2-0.2 0.3-0.3 0 0 0 0c0.2-0.3 0.2-0.5 0.2-0.6q0 0 0 0c0-0.2-0.1-0.4-0.5-0.9-0.4-0.4-1.1-0.9-2.1-1.4-2-0.9-5-1.5-8.4-1.5-5-0.1-9.2 1.5-10.4 2.9-0.5 0.5-0.5 0.7-0.5 0.9zm71.5 0q0 0 0 0v2.5 6.4c0 1.4-0.6 2.7-1.5 3.6-1 1-2.1 1.7-3.5 2.3-2.6 1.2-6.1 1.9-9.9 1.9-5.8-0.1-10.7-1.4-13.4-4.2-0.9-0.9-1.6-2.2-1.6-3.6v-5.5-3.3q0-0.1 0-0.1c0-1.4 0.7-2.7 1.6-3.6 0.9-1 2-1.7 3.4-2.3 2.7-1.2 6.1-1.9 10-1.9 5.7 0.1 10.6 1.4 13.4 4.2 0.9 0.9 1.5 2.2 1.5 3.6zm-4 5.4q-0.5 0.3-1 0.5 0 0 0 0 0 0 0 0-0.3 0.1-0.6 0.2-0.2 0.1-0.4 0.2-0.3 0.1-0.6 0.2-0.3 0.1-0.5 0.2-0.3 0.1-0.7 0.2-0.2 0.1-0.5 0.1-0.4 0.1-0.7 0.2-0.3 0-0.5 0.1-0.4 0.1-0.8 0.1-0.3 0.1-0.5 0.1-0.4 0.1-0.9 0.1-0.2 0-0.4 0.1-0.5 0-1 0-0.2 0-0.4 0-0.7 0.1-1.4 0.1-1 0-1.9-0.1-0.3 0-0.6 0-0.7-0.1-1.3-0.2-0.3 0-0.6 0-0.8-0.2-1.6-0.3-0.1 0-0.1 0-0.8-0.2-1.6-0.4-0.2-0.1-0.5-0.2-0.5-0.2-1-0.4-0.2 0-0.5-0.1-0.6-0.3-1.2-0.6 0 0-0.1-0.1v3.5c0 0.2 0.1 0.4 0.5 0.9 0.4 0.4 1.1 0.9 2.1 1.4 2 0.9 5 1.5 8.4 1.5 5 0 9.3-1.5 10.5-2.9 0.4-0.5 0.4-0.7 0.4-0.9zm0-5.5c0-0.1 0-0.4-0.5-0.8-0.4-0.5-1.1-1-2.1-1.4-2-0.9-5-1.6-8.3-1.6-5 0-9.3 1.6-10.5 3-0.4 0.4-0.5 0.7-0.5 0.8q0 0.1 0 0.1c0 0.1 0.1 0.4 0.5 0.8q0.3 0.4 0.9 0.7 0 0.1 0.1 0.1 0.2 0.1 0.4 0.3 0.2 0.1 0.4 0.2 0.2 0 0.3 0.1 0.3 0.1 0.6 0.3 0.1 0 0.2 0 0.4 0.2 0.9 0.3 0 0 0 0c1.2 0.4 2.6 0.7 4.2 0.8q0 0 0 0 0.6 0.1 1.1 0.1 0.1 0 0.1 0 0.6 0 1.3 0c2.4 0.1 4.7-0.3 6.5-0.8q0.1-0.1 0.1-0.1 0.3-0.1 0.5-0.1 0.1-0.1 0.2-0.1 0.2-0.1 0.4-0.2 0.1 0 0.2 0 0.2-0.1 0.4-0.2 0.1 0 0.2-0.1 0.2-0.1 0.4-0.2 0 0 0.1 0 0.2-0.1 0.4-0.2 0-0.1 0-0.1 0.7-0.4 1-0.8 0.2-0.1 0.3-0.2 0 0 0-0.1 0.1-0.1 0.1-0.2 0 0 0 0 0.1-0.2 0.1-0.3 0 0 0-0.1zm-28.6 39.2c0 1.1-0.9 2-2 2h-36.5c-1.1 0-2-0.9-2-2 0-1.1 0.9-2 2-2h36.5c1.1 0 2 0.9 2 2zm27.2 0c0 1.1-0.9 2-2 2h-7.8c-1.1 0-2-0.9-2-2 0-1.1 0.9-2 2-2h7.8c1.1 0 2 0.9 2 2zm-14.8 0c0 1.1-0.9 2-2 2h-3.3c-1.1 0-2-0.9-2-2 0-1.1 0.9-2 2-2h3.3c1.1 0 2 0.9 2 2z" fill="#FF4E50"/></svg>