<svg version="1.2" xmlns="http://www.w3.org/2000/svg" viewBox="0 0 77 103" width="77" height="103"><style>.a{fill:#FF4E50}</style><path fill-rule="evenodd" class="a" d="m76.8 88.3v12.1c0 0.5-0.2 1-0.6 1.4-0.4 0.4-0.9 0.6-1.4 0.6h-71.9c-0.6 0-1.1-0.2-1.5-0.6-0.3-0.4-0.5-0.9-0.5-1.4v-12.1c0-3.6 2.7-6.6 6.2-7.1v-2.7c0-3.9 3.2-7.1 7.1-7.1h1.5c5.4-7.9 6.7-18.5 6.7-26.2q0-2.6-0.2-4.7h-1.4c-3.5 0-6-3.1-6-6.5q0-1.4 0.5-2.6h-2.2c-1 0-1.8-0.7-2-1.6l-5.4-26.9c-0.1-0.6 0.1-1.2 0.4-1.6 0.4-0.5 1-0.8 1.6-0.8h14.4c1 0 1.8 0.7 2 1.6l2.4 11.3h3v-10.9c0-0.5 0.2-1 0.6-1.4 0.4-0.3 0.9-0.6 1.4-0.6h14.2c0.5 0 1.1 0.3 1.4 0.6 0.4 0.4 0.6 0.9 0.6 1.4v10.9h3.5l2.4-11.3c0.2-0.9 1-1.6 1.9-1.6h14.5c0.6 0 1.2 0.3 1.5 0.8 0.4 0.4 0.6 1 0.4 1.6l-5.4 26.9c-0.2 0.9-1 1.6-1.9 1.6h-2.2q0.5 1.2 0.5 2.6c0 3.4-2.5 6.5-6 6.5h-1.4c-0.1 1.4-0.2 3-0.2 4.7 0 7.7 1.3 18.3 6.7 26.2h1.4c4 0 7.2 3.2 7.2 7.1v2.7c3.5 0.5 6.2 3.5 6.2 7.1zm-13.9-60.9l4.6-22.9h-10.4l-2.4 11.3c-0.2 0.9-1 1.6-1.9 1.6h-7.1c-0.5 0-1-0.3-1.4-0.6-0.4-0.4-0.6-0.9-0.6-1.4v-10.9h-10.2v10.9c0 0.5-0.2 1-0.6 1.4-0.3 0.3-0.9 0.6-1.4 0.6h-6.6c-0.9 0-1.8-0.7-2-1.6l-2.4-11.3h-10.4l4.6 22.9zm9.9 60.9c0-1.7-1.4-3.1-3.2-3.1h-1q0 0 0 0 0 0 0 0h-9.9c-1.1 0-2-0.9-2-2 0-1.1 0.9-2 2-2h7.9v-2.7c0-1.7-1.4-3.1-3.1-3.1h-29.5c-1.1 0-2-0.9-2-2 0-1.1 0.9-2 2-2h23.3c-5-8.6-6-18.8-6-26.2 0-1.7 0.1-3.3 0.2-4.7h-2.4c-1.1 0-2-0.9-2-2 0-1.1 0.9-2 2-2h7.8q0.8 0 1.4-0.6c0.3-0.5 0.6-1.1 0.6-1.9 0-0.7-0.3-1.4-0.6-1.8q-0.6-0.6-1.4-0.6h-36.1q-0.8 0-1.4 0.6c-0.4 0.4-0.6 1.1-0.6 1.8 0 0.8 0.2 1.4 0.6 1.9q0.6 0.6 1.4 0.6h18.2c1.1 0 2 0.9 2 2 0 1.1-0.9 2-2 2h-12.8c0.1 1.4 0.2 3 0.2 4.7 0 7.4-1.1 17.6-6 26.2h3.1c1.1 0 2 0.9 2 2 0 1.1-0.9 2-2 2h-9.3c-1.7 0-3.1 1.4-3.1 3.1v2.7h28.2c1.1 0 2 0.9 2 2 0 1.1-0.9 2-2 2h-30.2q0 0 0 0 0 0-0.1 0h-1c-1.7 0-3.1 1.4-3.1 3.1v10.1h67.9zm-21.9-5.2c0 1.1-0.9 2-2 2h-1.7c-1.1 0-2-0.9-2-2 0-1.1 0.9-2 2-2h1.7c1.1 0 2 0.9 2 2z" fill="#FF4E50"/></svg>